<svg width="39" height="39" viewBox="0 0 39 39" fill="none" xmlns="http://www.w3.org/2000/svg">
<circle cx="19.5" cy="19.5" r="37" stroke="#D4AF37"/>
<path d="M11.0937 17.6094C13.3437 22.0312 16.9688 25.6406 21.3906 27.9062L24.8281 24.4688C25.25 24.0469 25.875 23.9062 26.4219 24.0937C28.1719 24.6719 30.0625 24.9844 32 24.9844C32.8594 24.9844 33.5625 25.6875 33.5625 26.5469V32C33.5625 32.8594 32.8594 33.5625 32 33.5625C17.3281 33.5625 5.4375 21.6719 5.4375 7C5.4375 6.14062 6.14062 5.4375 7 5.4375H12.4688C13.3281 5.4375 14.0312 6.14062 14.0312 7C14.0312 8.95312 14.3437 10.8281 14.9219 12.5781C15.0937 13.125 14.9687 13.7344 14.5312 14.1719L11.0937 17.6094Z" fill="#D4AF37"/>
</svg>
